<?xml version="1.0" encoding="UTF-8" standalone="no"?>
<svg
   xmlns:dc="http://purl.org/dc/elements/1.1/"
   xmlns:cc="http://creativecommons.org/ns#"
   xmlns:rdf="http://www.w3.org/1999/02/22-rdf-syntax-ns#"
   xmlns:svg="http://www.w3.org/2000/svg"
   xmlns="http://www.w3.org/2000/svg"
   viewBox="0 0 106.54232 138.79085"
   height="138.79085"
   width="106.54232"
   xml:space="preserve"
   id="svg4766"
   version="1.1"><metadata
     id="metadata4772"><rdf:RDF><cc:Work
         rdf:about=""><dc:format>image/svg+xml</dc:format><dc:type
           rdf:resource="http://purl.org/dc/dcmitype/StillImage" /><dc:title></dc:title></cc:Work></rdf:RDF></metadata><defs
     id="defs4770"><clipPath
       id="clipPath4782"
       clipPathUnits="userSpaceOnUse"><path
         id="path4780"
         d="M 0,150 H 300 V 0 H 0 Z" /></clipPath></defs><g
     transform="matrix(1.3333333,0,0,-1.3333333,-101.99125,182.7292)"
     id="g4774"><g
       transform="translate(-33.553252)"
       id="g4935"><g
         id="g4784"
         transform="translate(142.0039,77.6079)"><path
           d="m 0,0 c 2.657,-0.983 3.098,-2.607 3.916,-4.312 0.818,-1.705 0.885,-3.641 1.124,-5.508 0.238,-1.866 0.726,-3.827 2.144,-5.121 1.379,-1.259 3.555,-1.653 5.342,-0.968 1.787,0.687 3.09,2.415 3.198,4.245 0.117,1.982 -1.284,4.801 -2.65,6.282 C 9.719,-1.744 5.085,-0.399 0,0"
           style="fill:#e9aa29;fill-opacity:1;fill-rule:nonzero;stroke:none"
           id="path4786" /></g><g
         id="g4788"
         transform="translate(185.1465,90.5952)"><path
           d="m 0,0 c 3.533,-6.099 5.142,-13.374 4.749,-20.597 -0.52,-7.201 -2.892,-14.431 -7.273,-20.375 -1.006,-1.551 -2.288,-2.883 -3.482,-4.296 -0.641,-0.663 -1.335,-1.275 -2.005,-1.914 -0.34,-0.314 -0.67,-0.639 -1.019,-0.942 l -1.097,-0.85 c -2.859,-2.365 -6.151,-4.162 -9.552,-5.653 l -2.61,-0.993 c -0.875,-0.318 -1.793,-0.5 -2.69,-0.754 -1.786,-0.551 -3.651,-0.719 -5.487,-1.038 -3.702,-0.3 -7.463,-0.398 -11.144,0.286 l -1.382,0.217 c -0.46,0.08 -0.906,0.225 -1.359,0.334 l -2.707,0.714 -2.626,0.967 c -0.436,0.167 -0.878,0.317 -1.306,0.499 l -1.258,0.611 c -3.406,1.529 -6.499,3.68 -9.32,6.088 l -2.034,1.908 c -0.662,0.651 -1.243,1.38 -1.866,2.067 l -0.918,1.046 c -0.287,0.363 -0.55,0.747 -0.825,1.12 -0.539,0.754 -1.097,1.495 -1.616,2.26 -1.964,3.142 -3.581,6.498 -4.619,10.042 -0.977,3.543 -1.703,7.183 -1.642,10.848 -0.096,3.651 0.397,7.298 1.346,10.789 1.942,6.974 5.841,13.324 11.139,17.966 -4.488,-5.409 -7.564,-11.816 -8.746,-18.517 -0.616,-3.336 -0.823,-6.745 -0.465,-10.091 0.199,-3.358 1.006,-6.635 2.074,-9.778 4.4,-12.618 15.958,-22.172 28.941,-24.16 3.223,-0.647 6.542,-0.579 9.812,-0.363 1.617,0.275 3.268,0.385 4.845,0.865 0.791,0.218 1.606,0.36 2.38,0.635 l 2.328,0.814 c 3.043,1.222 6.032,2.707 8.65,4.74 l 1.009,0.724 c 0.321,0.26 0.624,0.543 0.937,0.814 l 1.867,1.642 c 1.129,1.211 2.367,2.341 3.343,3.694 4.215,5.174 6.893,11.568 7.947,18.277 C 3.338,-13.619 2.527,-6.562 0,0"
           style="fill:#e1751c;fill-opacity:1;fill-rule:nonzero;stroke:none"
           id="path4790" /></g><g
         id="g4792"
         transform="translate(148.2373,46.5693)"><path
           d="m 0,0 c 1.571,-0.162 3.154,-0.209 4.732,-0.13 3.344,0.167 6.65,0.91 9.733,2.219 2.331,0.988 6.25,2.672 7.632,4.865 2.27,3.603 2.084,9.21 1.483,13.254 -1.479,9.962 -9.984,18.47 -19.545,21.789 4.289,-1.488 8.39,-5.739 10.702,-9.679 2.513,-4.28 2.538,-8.714 0.838,-13.12 -2.158,-5.592 -7.159,-8.813 -13.099,-8.813 -7.14,0 -13.873,5.912 -14.23,13.227 -0.402,8.239 6.568,16.421 11.269,22.478 13.779,17.758 2.8,44.384 2.798,44.387 C 1.495,80.953 -0.826,72.03 -7.063,64.72 -12.57,58.265 -19.588,52.974 -23.808,45.493 c -1.978,-3.506 -3.356,-7.371 -3.877,-11.877 -0.842,-7.269 0.898,-14.814 5.113,-20.827 C -17.426,5.448 -8.841,0.907 0,0"
           style="fill:#b1492e;fill-opacity:1;fill-rule:nonzero;stroke:none"
           id="path4794" /></g><g
         id="g4796"
         transform="translate(149.5942,46.4619)"><path
           d="m 0,0 c 0.39,-0.022 0.778,-0.04 1.164,-0.049 -9.586,4.035 -14.311,11.547 -15.302,20.429 -0.506,4.541 0.913,8.891 3.279,12.683 2.364,4.862 6.12,9.402 9.017,13.135 13.779,17.757 2.8,44.384 2.799,44.386 C 0.138,81.061 -2.183,72.138 -8.42,64.827 -13.927,58.373 -20.945,53.081 -25.165,45.6 c -1.978,-3.506 -3.356,-7.371 -3.877,-11.876 -0.842,-7.27 0.898,-14.815 5.113,-20.828 C -18.783,5.556 -10.198,1.015 -1.357,0.107 -0.949,0.065 -0.543,0.033 -0.141,0.008 -0.094,0.005 -0.047,0.003 0,0"
           style="fill:#d77230;fill-opacity:1;fill-rule:nonzero;stroke:none"
           id="path4798" /></g><g
         id="g4800"
         transform="translate(174.3926,57.4688)"><path
           d="m 0,0 c 4.499,5.378 5.454,13.938 5.441,19.988 -0.012,6 -1.557,12.061 -5.037,17.277 -2.851,4.276 -6.901,7.87 -10.24,11.881 -3.34,4.012 -6.042,8.748 -5.57,13.651 -2.792,-3.006 -3.394,-7.006 -2.613,-10.924 0.683,-3.422 2.537,-6.573 3.768,-9.844 0.917,-2.439 1.915,-4.866 2.447,-7.426 0.585,-2.816 0.293,-5.045 -0.755,-7.679 1.586,-1.373 3.163,-2.976 4.296,-4.753 1.135,-1.777 1.398,-3.954 2.392,-5.804 2.266,-4.22 3.037,-9.118 2.546,-13.898"
           style="fill:#e0a832;fill-opacity:1;fill-rule:nonzero;stroke:none"
           id="path4802" /></g><g
         id="g4804"
         transform="translate(162.7998,102.5723)"><path
           d="M 0,0 C -3.229,4.678 -6.908,12.028 -3.813,17.694 -6.605,14.688 -7.207,10.687 -6.426,6.77 c 0.683,-3.423 2.536,-6.574 3.768,-9.845 0.917,-2.438 1.915,-4.866 2.447,-7.425 0.585,-2.817 0.293,-5.046 -0.755,-7.679 1.586,-1.374 3.162,-2.976 4.296,-4.753 1.135,-1.778 1.398,-3.954 2.392,-5.804 0.221,-0.413 0.424,-0.835 0.618,-1.26 l 1.07,-0.062 c 0,0 2.275,7.962 1.272,15.182 C 7.87,-9.043 3.206,-4.645 0,0"
           style="fill:#c3502e;fill-opacity:1;fill-rule:nonzero;stroke:none"
           id="path4806" /></g><g
         id="g4808"
         transform="translate(150.7583,46.4131)"><path
           d="m 0,0 c 0,0 14.17,3.691 16.669,18.793 2.186,13.205 -9.137,21.183 -15.155,23.36 0,0 13.178,0.898 20.121,-6.849 C 28.579,27.558 28.11,19.086 24.288,12.071 20.221,4.608 9.019,-0.682 0,0"
           style="fill:#d77230;fill-opacity:1;fill-rule:nonzero;stroke:none"
           id="path4810" /></g><g
         id="g4812"
         transform="translate(150.7583,46.4131)"><path
           d="M 0,0 C 15.617,1.33 23.989,14.041 21.453,26.241 19.075,37.677 1.514,42.153 1.514,42.153 7.532,39.976 18.855,31.998 16.669,18.793 14.17,3.691 0,0 0,0"
           style="fill:#e0a832;fill-opacity:1;fill-rule:nonzero;stroke:none"
           id="path4814" /></g><g
         id="g4816"
         transform="translate(127.5913,76.9229)"><path
           d="m 0,0 c 1.094,9.213 7.198,15.63 12.99,22.402 4.822,5.638 9.056,11.955 10.593,19.313 1.238,5.935 1.3,12.59 -0.624,18.409 C 22.141,50.6 19.82,41.677 13.583,34.366 8.076,27.912 1.058,22.62 -3.162,15.139 -5.14,11.633 -6.518,7.768 -7.039,3.263 c -0.842,-7.27 0.898,-14.815 5.113,-20.827 5.146,-7.341 13.731,-11.882 22.572,-12.79 0.408,-0.042 0.813,-0.074 1.216,-0.099 0.047,-0.003 0.094,-0.005 0.141,-0.008 0.39,-0.022 0.778,-0.04 1.164,-0.049 -6.454,0.883 -12.254,3.128 -16.461,7.47 C 0.954,-17.103 -0.951,-8.01 0,0"
           style="fill:#e0a832;fill-opacity:1;fill-rule:nonzero;stroke:none"
           id="path4818" /></g></g></g></svg>